# AST/ASF file generated using VICON BodyLanguage
# -----------------------------------------------
:version 1.10
:name VICON
:units
  mass 1.0
  length 0.45
  angle deg
:documentation
   .ast/.asf automatically generated from VICON data using
   VICON BodyBuilder and BodyLanguage model FoxedUp or BRILLIANT.MOD
:root
   order TX TY TZ RX RY RZ
   axis XYZ
   position 0 0 0  
   orientation 0 0 0 
:bonedata
  begin
     id 1 
     name lhipjoint
     direction 0.624716 -0.669793 0.401383 
     length 2.38238 
     axis 0 0 0  XYZ
  end
  begin
     id 2 
     name lfemur
     direction 0.34202 -0.939693 0  
     length 6.4574  
     axis 0 0 20  XYZ
    dof rx ry rz
    limits (-160.0 20.0)
           (-70.0 70.0)
           (-60.0 70.0)
  end
  begin
     id 3 
     name ltibia
     direction 0.34202 -0.939693 0   
     length 7.68739   
     axis 0 0 20   XYZ
    dof rx
    limits (-10.0 170.0)
  end
  begin
     id 4 
     name lfoot
     direction 0.0681309 -0.187188 0.979959   
     length 2.46615   
     axis -90 7.62852e-016 20   XYZ
    dof rx rz
    limits (-45.0 90.0)
           (-70.0 20.0)
  end
  begin
     id 5 
     name ltoes
     direction 1.53566e-011 -4.21819e-011 1   
     length 1.2376   
     axis -90 7.62852e-016 20   XYZ
    dof rx
    limits (-90.0 20.0)
  end
  begin
     id 6 
     name rhipjoint
     direction -0.644473 -0.655875 0.393043   
     length 2.43293  
     axis 0 0 0  XYZ 
  end
  begin
     id 7 
     name rfemur
     direction -0.34202 -0.939693 0   
     length 6.7025   
     axis 0 0 -20   XYZ
    dof rx ry rz
    limits (-160.0 20.0)
           (-70.0 70.0)
           (-70.0 60.0)
  end
  begin
     id 8 
     name rtibia
     direction -0.34202 -0.939693 0   
     length 7.80547   
     axis 0 0 -20   XYZ
    dof rx
    limits (-10.0 170.0)
 end
 begin
     id 9 
     name rfoot
     direction -0.0756734 -0.207911 0.975216   
     length 2.40315  
     axis -90 -7.62852e-016 -20   XYZ
    dof rx rz
    limits (-45.0 90.0)
           (-20.0 70.0)
  end
  begin
     id 10 
     name rtoes
     direction -1.5353e-011 -4.21879e-011 1   
     length 1.20477   
     axis -90 -7.62852e-016 -20   XYZ
    dof rx
    limits (-90.0 20.0)
  end
  begin
     id 11 
     name lowerback
     direction 0.0160353 0.987463 -0.157037   
     length 2.18572   
     axis 0 0 0   XYZ
    dof rx ry rz
    limits (-20.0 45.0)
           (-30.0 30.0)
           (-30.0 30.0)
  end
  begin
     id 12 
     name upperback
     direction -0.00499661 0.999756 0.0215076   
     length 2.18016   
     axis 0 0 0   XYZ
    dof rx ry rz
    limits (-20.0 45.0)
           (-30.0 30.0)
           (-30.0 30.0)
  end
  begin
     id 13 
     name thorax
     direction -0.00921346 0.995333 0.0960619   
     length 2.24923   
     axis 0 0 0   XYZ
    dof rx ry rz
    limits (-20.0 45.0)
           (-30.0 30.0)
           (-30.0 30.0)
  end
  begin
     id 14 
     name lowerneck
     direction 0.0274184 0.991181 0.12965   
     length 1.70911   
     axis 0 0 0   XYZ
    dof rx ry rz
    limits (-20.0 45.0)
           (-30.0 30.0)
           (-30.0 30.0)
  end
  begin
     id 15 
     name upperneck
     direction 0.0015627 0.999959 -0.00893559   
     length 1.69312   
     axis 0 0 0   XYZ
    dof rx ry rz
    limits (-20.0 45.0)
           (-30.0 30.0)
           (-30.0 30.0)
  end
  begin
     id 16
     name head
     direction -0.00230242 0.999856 -0.0168327  
     length 1.80241  
     axis 0 0 0   XYZ
    dof rx ry rz
    limits (-20.0 45.0)
           (-30.0 30.0)
           (-30.0 30.0)
  end
  begin
     id 17 
     name lclavicle
     direction 0.955523 0.290741 -0.0494489  
     length 3.84275  
     axis 0 0 0   XYZ
    dof ry rz
    limits (-20.0 10.0)
           (0.0 20.0)
  end
  begin
     id 18 
     name lhumerus
     direction 1 -4.48967e-011 -3.18382e-028   
     length 5.17714   
     axis 180 -30 -90   XYZ
    dof rx ry rz
    limits (-60.0 90.0)
           (-90.0 90.0)
           (-90.0 90.0)
  end
  begin
     id 19
     name lradius
     direction 1 -4.48968e-011 -2.22911e-027   
     length 3.43679   
     axis 180 -30 -90   XYZ
    dof rx
    limits (-10.0 170.0)
  end
  begin
     id 20
     name lwrist
     direction 1 -4.48951e-011 -6.32245e-027   
     length 1.7184   
     axis 3.57107e-015 90 90   XYZ
    dof ry
    limits (-180.0 0.0)
 end
  begin
     id 21 
     name lhand
     direction 1 -4.48924e-011 -1.26431e-026   
     length 0.573117   
     axis 8.06912e-015 90 90   XYZ
    dof rx rz
    limits (-90.0 90.0)
           (-45.0 45.0)
  end
  begin
     id 22 
     name lfingers
     direction 1 -4.49001e-011 -2.52965e-026   
     length 0.462062   
     axis 1.61381e-014 90 90   XYZ
    dof rx
    limits (0.0 90.0)
  end
  begin
     id 23
     name lthumb
     direction 0.707107 -6.35008e-011 0.707107   
     length 0.663431   
     axis -90 45 -1.62303e-014   XYZ
    dof rx rz
    limits (-45.0 45.0)
           (-45.0 45.0)
  end
  begin
     id 24 
     name rclavicle
     direction -0.963917 0.256881 -0.0698287   
     length 3.73057  
     axis 0 0 0   XYZ 
    dof ry rz
    limits (-10.0 20.0)
           (-20.0 0.0)
  end
  begin
     id 25 
     name rhumerus
     direction -1 -4.48962e-011 -2.73982e-027  
     length 5.23908   
     axis 180 30 90   XYZ
    dof rx ry rz
    limits (-90.0 60.0)
           (-90.0 90.0)
           (-90.0 90.0)
  end
  begin
     id 26 
     name rradius
     direction -1 -4.48968e-011 -4.33218e-027   
     length 3.46485   
     axis 180 30 90   XYZ
    dof rx
    limits (-10.0 170.0)
  end
  begin
     id 27 
     name rwrist
     direction -1 -4.48989e-011 -6.32372e-027   
     length 1.73243   
     axis 3.57107e-015 -90 -90   XYZ
    dof ry
    limits (-180.0 0.0)
  end
  begin
     id 28
     name rhand
     direction -1 -4.48948e-011 -1.26448e-026   
     length 0.608752   
     axis 8.06912e-015 -90 -90   XYZ
    dof rx rz
    limits (-90.0 90.0)
           (-45.0 45.0)
  end
  begin
     id 29
     name rfingers
     direction -1 -4.48962e-011 -2.52913e-026   
     length 0.490792   
     axis 1.61381e-014 -90 -90   XYZ
    dof rx
    limits (0.0 90.0)
  end
  begin
     id 30
     name rthumb
     direction -0.707107 -6.34878e-011 0.707107   
     length 0.704682   
     axis -90 -45 1.62303e-014   XYZ
    dof rx rz
    limits (-45.0 45.0)
           (-45.0 45.0)
  end
:hierarchy
  begin
    root lhipjoint rhipjoint lowerback
    lhipjoint lfemur
    lfemur ltibia
    ltibia lfoot
    lfoot ltoes
    rhipjoint rfemur
    rfemur rtibia
    rtibia rfoot
    rfoot rtoes
    lowerback upperback
    upperback thorax
    thorax lowerneck lclavicle rclavicle
    lowerneck upperneck
    upperneck head
    lclavicle lhumerus
    lhumerus lradius
    lradius lwrist
    lwrist lhand lthumb
    lhand lfingers
    rclavicle rhumerus
    rhumerus rradius
    rradius rwrist
    rwrist rhand rthumb
    rhand rfingers
  end

#!OML:ASF G:\JayActor3\Patient Classification 1\Patient 1\Session 6\male.ASF
:FULLY-SPECIFIED
:DEGREES
463
root 29.8625 15.4566 8.28581 28.115 -121.983 -21.1397
lowerback 12.204 3.56822 4.69748
upperback 6.6325 4.79227 -0.466487
thorax 0.58091 2.37207 -3.64721
lowerneck 7.30989 -9.84743 -4.65026
upperneck -2.66365 -13.3165 5.35803
head -1.3859 -6.7349 2.88254
rclavicle -1.03368e-014 -2.22639e-014
rhumerus 64.2188 -13.5544 -52.645
rradius 14.5166
rwrist 18.076
rhand -20.0804 -12.3368
rfingers 7.12502
rthumb 6.26223 -42.2243
lclavicle -1.03368e-014 -2.22639e-014
lhumerus -48.9063 3.62331 72.9348
lradius 38.3101
lwrist 32.0723
lhand -17.4153 7.87562
lfingers 7.12502
lthumb 8.83461 37.6707
rfemur -53.976 -25.5582 13.8793
rtibia 56.1074
rfoot -22.3726 -25.6113
rtoes 14.4449
lfemur 7.89545 1.86107 -2.67871
ltibia 2.54444e-014
lfoot 9.04295 14.9588
ltoes -4.26877
464
root 29.8448 15.4867 8.11556 28.3235 -121.927 -21.3368
lowerback 12.1728 3.51439 4.83587
upperback 6.62089 4.73607 -0.447647
thorax 0.591277 2.34814 -3.69728
lowerneck 7.27369 -9.79907 -4.59693
upperneck -2.63059 -13.2503 5.2727
head -1.38178 -6.69998 2.84185
rclavicle -7.95139e-016 -3.02153e-014
rhumerus 64.0967 -13.277 -52.3504
rradius 14.6359
rwrist 17.7923
rhand -20.2102 -12.3951
rfingers 7.12502
rthumb 6.13688 -42.2862
lclavicle -7.95139e-016 -3.02153e-014
lhumerus -48.9591 3.87275 73.4822
lradius 37.6261
lwrist 31.6997
lhand -16.1394 7.85737
lfingers 7.12502
lthumb 10.0656 37.5966
rfemur -53.5677 -25.3004 14.0608
rtibia 56.3382
rfoot -23.1133 -25.483
rtoes 14.422
lfemur 7.85278 1.8062 -2.48452
ltibia -1.43125e-014
lfoot 10.848 15.5859
ltoes -2.42993
465
root 29.826 15.5203 7.94727 28.4286 -121.843 -21.3845
lowerback 12.0971 3.45859 5.05359
upperback 6.61406 4.68311 -0.406666
thorax 0.636168 2.32862 -3.76546
lowerneck 7.22402 -9.75621 -4.55396
upperneck -2.59986 -13.1917 5.19195
head -1.37456 -6.66874 2.80356
rclavicle -6.36111e-014 1.27222e-014
rhumerus 63.9732 -13.0011 -52.0433
rradius 14.7643
rwrist 17.516
rhand -20.3407 -12.4242
rfingers 7.12502
rthumb 6.01088 -42.3189
lclavicle -6.36111e-014 1.27222e-014
lhumerus -49.0135 4.12735 74.0534
lradius 36.9617
lwrist 31.3283
lhand -14.8047 7.88154
lfingers 7.12502
lthumb 11.3531 37.5542
rfemur -53.102 -24.9983 14.3306
rtibia 56.4412
rfoot -23.8698 -25.3869
rtoes 14.4863
lfemur 7.74941 1.77456 -2.24246
ltibia -5.08889e-014
lfoot 12.5429 16.2084
ltoes -0.503069
466
root 29.8065 15.5577 7.7819 28.4331 -121.75 -21.322
lowerback 12.0088 3.40177 5.33114
upperback 6.61988 4.63219 -0.353285
thorax 0.705825 2.31208 -3.85289
lowerneck 7.17761 -9.71814 -4.51374
upperneck -2.58713 -13.1391 5.11672
head -1.3728 -6.6406 2.76867
rclavicle 6.75868e-014 -4.29375e-014
rhumerus 63.8567 -12.7352 -51.7558
rradius 14.9057
rwrist 17.2832
rhand -20.4414 -12.4221
rfingers 7.12502
rthumb 5.91366 -42.3196
lclavicle 6.75868e-014 -4.29375e-014
lhumerus -49.079 4.3813 74.6462
lradius 36.3426
lwrist 31.0121
lhand -13.5168 7.97114
lfingers 7.12502
lthumb 12.595 37.5715
rfemur -52.5624 -24.6784 14.6585
rtibia 56.4167
rfoot -24.5981 -25.3072
rtoes 14.6002
lfemur 7.62337 1.76478 -1.98647
ltibia -1.90833e-014
lfoot 13.9826 16.817
ltoes 1.31986
467
root 29.7866 15.5991 7.62156 28.4167 -121.668 -21.2503
lowerback 11.9334 3.34036 5.63449
upperback 6.63678 4.57602 -0.307032
thorax 0.782643 2.29385 -3.96216
lowerneck 7.13888 -9.68308 -4.46897
upperneck -2.59805 -13.0894 5.04727
head -1.37977 -6.61409 2.73661
rclavicle 9.30312e-014 -4.77083e-014
rhumerus 63.7502 -12.48 -51.4922
rradius 15.0554
rwrist 17.0962
rhand -20.4974 -12.4108
rfingers 7.12502
rthumb 5.85963 -42.3097
lclavicle 9.30312e-014 -4.77083e-014
lhumerus -49.1577 4.62346 75.2617
lradius 35.7822
lwrist 30.7772
lhand -12.3604 8.12682
lfingers 7.12502
lthumb 13.7097 37.6552
rfemur -51.9579 -24.3749 14.983
rtibia 56.2657
rfoot -25.2595 -25.2344
rtoes 14.7478
lfemur 7.47325 1.7668 -1.78373
ltibia -4.77083e-014
lfoot 15.0539 17.4087
ltoes 2.81534
468
root 29.7671 15.6447 7.46766 28.4267 -121.617 -21.2135
lowerback 11.8877 3.278 5.93881
upperback 6.6509 4.51946 -0.27608
thorax 0.841678 2.27524 -4.09018
lowerneck 7.10833 -9.65031 -4.41059
upperneck -2.61955 -13.0418 4.9704
head -1.3928 -6.58862 2.7011
rclavicle -4.6118e-014 7.95139e-015
rhumerus 63.6405 -12.2302 -51.2414
rradius 15.2119
rwrist 16.9426
rhand -20.4997 -12.4007
rfingers 7.12502
rthumb 5.85741 -42.2998
lclavicle -4.6118e-014 7.95139e-015
lhumerus -49.2593 4.84861 75.8978
lradius 35.2832
lwrist 30.6106
lhand -11.3775 8.31575
lfingers 7.12502
lthumb 14.6568 37.7777
rfemur -51.3128 -24.0882 15.2734
rtibia 55.9958
rfoot -25.8184 -25.1705
rtoes 14.8546
lfemur 7.29894 1.78877 -1.66476
ltibia -2.8625e-014
lfoot 15.6327 18.0258
ltoes 4.1007
469
root 29.7486 15.6939 7.32049 28.4977 -121.612 -21.2341
lowerback 11.8751 3.21927 6.2107
upperback 6.65199 4.46713 -0.256975
thorax 0.867334 2.25704 -4.2158
lowerneck 7.07442 -9.61564 -4.34284
upperneck -2.63468 -12.9917 4.87517
head -1.40503 -6.56154 2.65771
rclavicle 4.85035e-014 4.77083e-015
rhumerus 63.5317 -11.972 -50.9835
rradius 15.3648
rwrist 16.791
rhand -20.4485 -12.4012
rfingers 7.12502
rthumb 5.90681 -42.2988
lclavicle 4.85035e-014 4.77083e-015
lhumerus -49.3853 5.0713 76.5534
lradius 34.8341
lwrist 30.4701
lhand -10.5799 8.51498
lfingers 7.12502
lthumb 15.4252 37.9195
rfemur -50.6534 -23.8014 15.5113
rtibia 55.622
rfoot -26.2895 -25.0997
rtoes 14.9369
lfemur 7.09068 1.8421 -1.64141
ltibia 3.18055e-015
lfoot 15.764 18.6242
ltoes 4.93577
470
root 29.7315 15.7463 7.17974 28.6637 -121.661 -21.3385
lowerback 11.8891 3.17103 6.42283
upperback 6.63769 4.426 -0.251057
thorax 0.85893 2.24195 -4.32545
lowerneck 7.02044 -9.58245 -4.26042
upperneck -2.63022 -12.9432 4.75653
head -1.40965 -6.5347 2.60227
rclavicle 2.46493e-014 -9.54166e-015
rhumerus 63.4216 -11.7129 -50.7068
rradius 15.5097
rwrist 16.6149
rhand -20.3445 -12.4122
rfingers 7.12502
rthumb 6.00718 -42.307
lclavicle 2.46493e-014 -9.54166e-015
lhumerus -49.5246 5.29095 77.2217
lradius 34.4195
lwrist 30.3073
lhand -9.96498 8.68905
lfingers 7.12502
lthumb 16.0174 38.0469
rfemur -49.9983 -23.504 15.6767
rtibia 55.162
rfoot -26.682 -25.0121
rtoes 15.0061
lfemur 6.84233 1.93014 -1.71837
ltibia 3.65764e-014
lfoot 15.4934 19.2002
ltoes 5.45677
471
root 29.7161 15.8011 7.04405 28.9092 -121.773 -21.5094
lowerback 11.9289 3.13992 6.55144
upperback 6.60904 4.40256 -0.249186
thorax 0.815984 2.23218 -4.39676
lowerneck 6.9433 -9.5481 -4.17467
upperneck -2.60288 -12.8936 4.61809
head -1.40422 -6.50684 2.53746
rclavicle 7.71285e-014 9.54166e-015
rhumerus 63.3104 -11.4454 -50.3888
rradius 15.6478
rwrist 16.3751
rhand -20.1887 -12.425
rfingers 7.12502
rthumb 6.15766 -42.3155
lclavicle 7.71285e-014 9.54166e-015
lhumerus -49.6743 5.52143 77.8945
lradius 34.0273
lwrist 30.0981
lhand -9.50966 8.81844
lfingers 7.12502
lthumb 16.4558 38.1405
rfemur -49.3514 -23.1675 15.7716
rtibia 54.6288
rfoot -27.0142 -24.9078
rtoes 15.0784
lfemur 6.57352 2.06249 -1.87765
ltibia -3.18055e-015
lfoot 14.9147 19.7341
ltoes 5.7938
472
root 29.703 15.8576 6.91189 29.2004 -121.951 -21.707
lowerback 11.9828 3.13194 6.59011
upperback 6.57256 4.4027 -0.246593
thorax 0.751595 2.23084 -4.42063
lowerneck 6.84312 -9.51372 -4.08314
upperneck -2.55797 -12.8437 4.46708
head -1.39012 -6.47856 2.46552
rclavicle 9.54166e-015 6.83819e-014
rhumerus 63.2118 -11.1838 -50.0573
rradius 15.7761
rwrist 16.0925
rhand -19.9878 -12.4375
rfingers 7.12502
rthumb 6.35155 -42.3222
lclavicle 9.54166e-015 6.83819e-014
lhumerus -49.8223 5.7647 78.5554
lradius 33.6506
lwrist 29.852
lhand -9.17553 8.90215
lfingers 7.12502
lthumb 16.7775 38.1973
rfemur -48.7169 -22.7705 15.8198
rtibia 54.0268
rfoot -27.268 -24.8205
rtoes 15.0845
lfemur 6.30135 2.24856 -2.08566
ltibia 1.43125e-014
lfoot 14.1614 20.1929
ltoes 6.12621
